<svg width="32" height="32" viewBox="0 0 32 32" fill="none" xmlns="http://www.w3.org/2000/svg">
<path d="M17.668 0.153584C17.826 0.0590117 18.0233 0.0590115 18.1814 0.153584L31.2828 7.99198C31.6072 8.18606 31.6072 8.65605 31.2828 8.85012L18.1814 16.6885C18.0233 16.7831 17.826 16.7831 17.668 16.6885L4.56653 8.85012C4.24214 8.65605 4.24214 8.18606 4.56653 7.99198L17.668 0.153584Z" fill="#FF4466"/>
<path d="M27.4998 14.514C27.8036 14.7164 27.7951 15.1655 27.484 15.3563L14.3367 23.4187C14.1764 23.5171 13.9744 23.5171 13.814 23.4187L0.694167 15.3732C0.376227 15.1783 0.37596 14.7164 0.693675 14.5211L5.67264 11.4599C5.8337 11.3608 6.03685 11.3611 6.19763 11.4606L17.2415 18.295C17.4013 18.394 17.6031 18.3949 17.7639 18.2974L25.5611 13.5685C25.727 13.4679 25.9361 13.4723 26.0976 13.5799L27.4998 14.514Z" fill="#00F6FF"/>
<path d="M27.4555 18.7319C27.7737 18.927 27.7737 19.3893 27.4555 19.5844L14.3367 27.6293C14.1764 27.7277 13.9744 27.7277 13.814 27.6293L0.695063 19.5844C0.376908 19.3893 0.376907 18.927 0.695061 18.7319L1.91302 17.985C2.0734 17.8866 2.27541 17.8866 2.43579 17.985L13.814 24.9625C13.9743 25.0609 14.1764 25.0609 14.3367 24.9625L25.7148 17.985C25.8752 17.8866 26.0772 17.8866 26.2376 17.985L27.4555 18.7319Z" fill="#00F6FF"/>
<path d="M27.4555 22.9423C27.7737 23.1375 27.7737 23.5997 27.4555 23.7948L14.3367 31.8398C14.1764 31.9381 13.9744 31.9381 13.814 31.8398L0.695063 23.7948C0.376908 23.5997 0.376907 23.1374 0.695061 22.9423L1.91302 22.1954C2.0734 22.0971 2.27541 22.0971 2.43579 22.1954L13.814 29.173C13.9743 29.2713 14.1764 29.2713 14.3367 29.173L25.7148 22.1954C25.8752 22.0971 26.0772 22.0971 26.2376 22.1954L27.4555 22.9423Z" fill="#00F6FF"/>
</svg>
